<mxfile host="Electron" modified="2024-06-24T19:14:24.169Z" agent="Mozilla/5.0 (Windows NT 10.0; Win64; x64) AppleWebKit/537.36 (KHTML, like Gecko) draw.io/24.6.1 Chrome/124.0.6367.207 Electron/30.0.6 Safari/537.36" etag="EngAlpQ8xkIqXb7_ndko" version="24.6.1" type="device">
  <diagram id="C5RBs43oDa-KdzZeNtuy" name="Page-1">
    <mxGraphModel dx="1434" dy="844" grid="1" gridSize="10" guides="1" tooltips="1" connect="1" arrows="1" fold="1" page="1" pageScale="1" pageWidth="827" pageHeight="1169" math="0" shadow="0">
      <root>
        <mxCell id="WIyWlLk6GJQsqaUBKTNV-0" />
        <mxCell id="WIyWlLk6GJQsqaUBKTNV-1" parent="WIyWlLk6GJQsqaUBKTNV-0" />
        <mxCell id="RpnWPyUdBbdbJS8ZOn5v-5" value="" style="edgeStyle=orthogonalEdgeStyle;rounded=0;orthogonalLoop=1;jettySize=auto;html=1;" parent="WIyWlLk6GJQsqaUBKTNV-1" source="RpnWPyUdBbdbJS8ZOn5v-0" target="RpnWPyUdBbdbJS8ZOn5v-2" edge="1">
          <mxGeometry relative="1" as="geometry" />
        </mxCell>
        <mxCell id="RpnWPyUdBbdbJS8ZOn5v-0" value="Start" style="ellipse;whiteSpace=wrap;html=1;" parent="WIyWlLk6GJQsqaUBKTNV-1" vertex="1">
          <mxGeometry x="354" y="50" width="120" height="80" as="geometry" />
        </mxCell>
        <mxCell id="xm2sle6dW1xPRc2y9hej-2" style="edgeStyle=orthogonalEdgeStyle;rounded=0;orthogonalLoop=1;jettySize=auto;html=1;entryX=0.5;entryY=0;entryDx=0;entryDy=0;" edge="1" parent="WIyWlLk6GJQsqaUBKTNV-1" source="RpnWPyUdBbdbJS8ZOn5v-1" target="xm2sle6dW1xPRc2y9hej-0">
          <mxGeometry relative="1" as="geometry" />
        </mxCell>
        <mxCell id="RpnWPyUdBbdbJS8ZOn5v-1" value="Spielmodus w채hlen" style="rounded=0;whiteSpace=wrap;html=1;" parent="WIyWlLk6GJQsqaUBKTNV-1" vertex="1">
          <mxGeometry x="354" y="280" width="120" height="60" as="geometry" />
        </mxCell>
        <mxCell id="RpnWPyUdBbdbJS8ZOn5v-6" value="" style="edgeStyle=orthogonalEdgeStyle;rounded=0;orthogonalLoop=1;jettySize=auto;html=1;" parent="WIyWlLk6GJQsqaUBKTNV-1" source="RpnWPyUdBbdbJS8ZOn5v-2" target="RpnWPyUdBbdbJS8ZOn5v-1" edge="1">
          <mxGeometry relative="1" as="geometry" />
        </mxCell>
        <mxCell id="RpnWPyUdBbdbJS8ZOn5v-2" value="Anzahl schiffe eingeben" style="rounded=0;whiteSpace=wrap;html=1;" parent="WIyWlLk6GJQsqaUBKTNV-1" vertex="1">
          <mxGeometry x="354" y="160" width="120" height="60" as="geometry" />
        </mxCell>
        <mxCell id="RpnWPyUdBbdbJS8ZOn5v-14" value="" style="edgeStyle=orthogonalEdgeStyle;rounded=0;orthogonalLoop=1;jettySize=auto;html=1;entryX=0.5;entryY=0;entryDx=0;entryDy=0;" parent="WIyWlLk6GJQsqaUBKTNV-1" source="RpnWPyUdBbdbJS8ZOn5v-11" target="RpnWPyUdBbdbJS8ZOn5v-19" edge="1">
          <mxGeometry relative="1" as="geometry">
            <mxPoint x="314" y="540" as="targetPoint" />
          </mxGeometry>
        </mxCell>
        <mxCell id="RpnWPyUdBbdbJS8ZOn5v-50" style="edgeStyle=none;rounded=0;orthogonalLoop=1;jettySize=auto;html=1;exitX=1;exitY=0.5;exitDx=0;exitDy=0;entryX=0.5;entryY=0;entryDx=0;entryDy=0;" parent="WIyWlLk6GJQsqaUBKTNV-1" source="RpnWPyUdBbdbJS8ZOn5v-11" target="RpnWPyUdBbdbJS8ZOn5v-49" edge="1">
          <mxGeometry relative="1" as="geometry">
            <Array as="points">
              <mxPoint x="560" y="540" />
            </Array>
          </mxGeometry>
        </mxCell>
        <mxCell id="RpnWPyUdBbdbJS8ZOn5v-52" value="Nein" style="edgeLabel;html=1;align=center;verticalAlign=middle;resizable=0;points=[];" parent="RpnWPyUdBbdbJS8ZOn5v-50" vertex="1" connectable="0">
          <mxGeometry x="-0.5269" y="4" relative="1" as="geometry">
            <mxPoint x="2" y="-8" as="offset" />
          </mxGeometry>
        </mxCell>
        <mxCell id="RpnWPyUdBbdbJS8ZOn5v-11" value="Schiffe&amp;nbsp;&lt;div&gt;체brig?&lt;/div&gt;" style="rhombus;whiteSpace=wrap;html=1;rounded=0;" parent="WIyWlLk6GJQsqaUBKTNV-1" vertex="1">
          <mxGeometry x="374" y="500" width="80" height="80" as="geometry" />
        </mxCell>
        <mxCell id="RpnWPyUdBbdbJS8ZOn5v-15" value="Ja" style="text;html=1;align=center;verticalAlign=middle;resizable=0;points=[];autosize=1;strokeColor=none;fillColor=none;" parent="WIyWlLk6GJQsqaUBKTNV-1" vertex="1">
          <mxGeometry x="330" y="513" width="40" height="30" as="geometry" />
        </mxCell>
        <mxCell id="RpnWPyUdBbdbJS8ZOn5v-37" style="edgeStyle=none;rounded=0;orthogonalLoop=1;jettySize=auto;html=1;exitX=0;exitY=0.5;exitDx=0;exitDy=0;entryX=0.5;entryY=0;entryDx=0;entryDy=0;" parent="WIyWlLk6GJQsqaUBKTNV-1" source="RpnWPyUdBbdbJS8ZOn5v-19" target="RpnWPyUdBbdbJS8ZOn5v-11" edge="1">
          <mxGeometry relative="1" as="geometry">
            <Array as="points">
              <mxPoint x="10" y="620" />
              <mxPoint x="10" y="500" />
            </Array>
          </mxGeometry>
        </mxCell>
        <mxCell id="RpnWPyUdBbdbJS8ZOn5v-41" style="edgeStyle=none;rounded=0;orthogonalLoop=1;jettySize=auto;html=1;entryX=0.5;entryY=0;entryDx=0;entryDy=0;" parent="WIyWlLk6GJQsqaUBKTNV-1" source="RpnWPyUdBbdbJS8ZOn5v-19" target="RpnWPyUdBbdbJS8ZOn5v-39" edge="1">
          <mxGeometry relative="1" as="geometry" />
        </mxCell>
        <mxCell id="RpnWPyUdBbdbJS8ZOn5v-44" value="Nein" style="edgeLabel;html=1;align=center;verticalAlign=middle;resizable=0;points=[];" parent="RpnWPyUdBbdbJS8ZOn5v-41" vertex="1" connectable="0">
          <mxGeometry x="-0.2" y="-2" relative="1" as="geometry">
            <mxPoint x="-18" as="offset" />
          </mxGeometry>
        </mxCell>
        <mxCell id="RpnWPyUdBbdbJS8ZOn5v-19" value="Alle Spieler platziert" style="rhombus;whiteSpace=wrap;html=1;" parent="WIyWlLk6GJQsqaUBKTNV-1" vertex="1">
          <mxGeometry x="100" y="580" width="80" height="80" as="geometry" />
        </mxCell>
        <mxCell id="RpnWPyUdBbdbJS8ZOn5v-38" value="Ja" style="text;html=1;align=center;verticalAlign=middle;resizable=0;points=[];autosize=1;strokeColor=none;fillColor=none;" parent="WIyWlLk6GJQsqaUBKTNV-1" vertex="1">
          <mxGeometry x="50" y="590" width="40" height="30" as="geometry" />
        </mxCell>
        <mxCell id="RpnWPyUdBbdbJS8ZOn5v-47" value="" style="edgeStyle=none;rounded=0;orthogonalLoop=1;jettySize=auto;html=1;" parent="WIyWlLk6GJQsqaUBKTNV-1" source="RpnWPyUdBbdbJS8ZOn5v-39" target="RpnWPyUdBbdbJS8ZOn5v-46" edge="1">
          <mxGeometry relative="1" as="geometry" />
        </mxCell>
        <mxCell id="RpnWPyUdBbdbJS8ZOn5v-39" value="Spieler Platziert schiff" style="rounded=0;whiteSpace=wrap;html=1;" parent="WIyWlLk6GJQsqaUBKTNV-1" vertex="1">
          <mxGeometry x="80" y="715" width="120" height="60" as="geometry" />
        </mxCell>
        <mxCell id="RpnWPyUdBbdbJS8ZOn5v-43" style="edgeStyle=none;rounded=0;orthogonalLoop=1;jettySize=auto;html=1;exitX=1;exitY=0.5;exitDx=0;exitDy=0;entryX=1;entryY=0.5;entryDx=0;entryDy=0;" parent="WIyWlLk6GJQsqaUBKTNV-1" source="RpnWPyUdBbdbJS8ZOn5v-40" target="RpnWPyUdBbdbJS8ZOn5v-19" edge="1">
          <mxGeometry relative="1" as="geometry">
            <Array as="points">
              <mxPoint x="260" y="945" />
              <mxPoint x="260" y="620" />
            </Array>
          </mxGeometry>
        </mxCell>
        <mxCell id="RpnWPyUdBbdbJS8ZOn5v-40" value="N채chster Spieler" style="rounded=0;whiteSpace=wrap;html=1;" parent="WIyWlLk6GJQsqaUBKTNV-1" vertex="1">
          <mxGeometry x="80" y="915" width="120" height="60" as="geometry" />
        </mxCell>
        <mxCell id="RpnWPyUdBbdbJS8ZOn5v-45" value="Ende" style="ellipse;whiteSpace=wrap;html=1;" parent="WIyWlLk6GJQsqaUBKTNV-1" vertex="1">
          <mxGeometry x="354" y="1065" width="120" height="80" as="geometry" />
        </mxCell>
        <mxCell id="RpnWPyUdBbdbJS8ZOn5v-48" value="" style="edgeStyle=none;rounded=0;orthogonalLoop=1;jettySize=auto;html=1;" parent="WIyWlLk6GJQsqaUBKTNV-1" source="RpnWPyUdBbdbJS8ZOn5v-46" target="RpnWPyUdBbdbJS8ZOn5v-40" edge="1">
          <mxGeometry relative="1" as="geometry" />
        </mxCell>
        <mxCell id="RpnWPyUdBbdbJS8ZOn5v-46" value="Ausgabe des Feldes" style="rounded=0;whiteSpace=wrap;html=1;" parent="WIyWlLk6GJQsqaUBKTNV-1" vertex="1">
          <mxGeometry x="80" y="815" width="120" height="60" as="geometry" />
        </mxCell>
        <mxCell id="RpnWPyUdBbdbJS8ZOn5v-51" style="edgeStyle=none;rounded=0;orthogonalLoop=1;jettySize=auto;html=1;entryX=0.5;entryY=0;entryDx=0;entryDy=0;" parent="WIyWlLk6GJQsqaUBKTNV-1" source="RpnWPyUdBbdbJS8ZOn5v-49" target="RpnWPyUdBbdbJS8ZOn5v-45" edge="1">
          <mxGeometry relative="1" as="geometry">
            <Array as="points">
              <mxPoint x="560" y="995" />
              <mxPoint x="414" y="995" />
            </Array>
          </mxGeometry>
        </mxCell>
        <mxCell id="RpnWPyUdBbdbJS8ZOn5v-49" value="Ausgabe aller Felder" style="rounded=0;whiteSpace=wrap;html=1;" parent="WIyWlLk6GJQsqaUBKTNV-1" vertex="1">
          <mxGeometry x="500" y="620" width="120" height="60" as="geometry" />
        </mxCell>
        <mxCell id="xm2sle6dW1xPRc2y9hej-1" style="edgeStyle=orthogonalEdgeStyle;rounded=0;orthogonalLoop=1;jettySize=auto;html=1;entryX=0.5;entryY=0;entryDx=0;entryDy=0;" edge="1" parent="WIyWlLk6GJQsqaUBKTNV-1" source="xm2sle6dW1xPRc2y9hej-0" target="RpnWPyUdBbdbJS8ZOn5v-11">
          <mxGeometry relative="1" as="geometry" />
        </mxCell>
        <mxCell id="xm2sle6dW1xPRc2y9hej-0" value="Erstelle die Arrays f체r jeden Spieler" style="rounded=0;whiteSpace=wrap;html=1;" vertex="1" parent="WIyWlLk6GJQsqaUBKTNV-1">
          <mxGeometry x="354" y="390" width="120" height="60" as="geometry" />
        </mxCell>
      </root>
    </mxGraphModel>
  </diagram>
</mxfile>
